<?xml version="1.0" encoding="UTF-8"?>
<svg viewBox="0 0 128 128" xmlns="http://www.w3.org/2000/svg">
 <g transform="rotate(-38.483 60.385 64.48)">
  <g fill="#3f3f3f">
   <g transform="rotate(35 45.568 65.672)" fill-rule="evenodd" opacity=".466">
    <path d="m57.614 23.013c-19.728 13.689-39.465 27.365-59.188 41.062 10.26 14.792 20.511 29.59 30.781 44.375 19.946-13.846 39.918-27.657 59.844-41.531 0.9731-7.6587 3.6573-15.731 3.5938-23.156-4.3506-5.5718-7.7506-12.622-12.688-17.281-7.369-0.9065-15.22-3.5875-22.344-3.4688zm19.312 16.344c4.4564-0.35699 3.7375 7.3218-0.68752 5.875-3.2024-0.82922-2.6171-5.7434 0.68752-5.875z" opacity=".346"/>
    <path d="m57.958 24.263c-19.28 13.378-38.57 26.74-57.844 40.125 9.7984 14.128 19.599 28.255 29.406 42.375 19.469-13.513 38.961-26.993 58.406-40.531 1.0265-7.539 3.4468-15.244 3.4687-22.125-4.2477-5.5508-7.5919-12.162-12.062-16.5-7.2944-0.96259-14.783-3.3748-21.375-3.3438zm18.875 13.875c0.011078-8.47e-4 0.020187 8.01e-4 0.031204 0 1.4428-0.10479 2.7237 0.52643 3.4375 1.4688 0.71921 0.94953 0.92778 2.1076 0.8125 3.2188-0.1153 1.1112-0.57306 2.2363-1.5 3-0.91301 0.7522-2.2926 0.99689-3.6875 0.5625v0.031193c-0.024323-0.005981-0.038406-0.024601-0.0625-0.031193-2.1317-0.59259-3.1512-2.6881-2.9375-4.5 0.21509-1.8235 1.6752-3.6443 3.9062-3.75h4.6e-5z" opacity=".346"/>
    <path d="m58.208 25.076c-18.979 13.169-37.966 26.325-56.938 39.5 9.4836 13.675 18.946 27.365 28.438 41.031 19.163-13.3 38.361-26.551 57.5-39.875 1.0568-7.4272 3.302-14.858 3.375-21.375-4.1913-5.5341-7.4935-11.862-11.688-16-7.2031-0.9917-14.454-3.2479-20.688-3.2812zm18.562 12.25c0.021378-0.00201 0.041199 9.8e-4 0.0625 0 1.6681-0.11169 3.2598 0.63898 4.125 1.7812 0.87634 1.1569 1.1341 2.5203 1 3.8125-0.13406 1.2922-0.67505 2.5941-1.8125 3.5312-1.1084 0.91327-2.8117 1.1958-4.4062 0.71875v0.031193c-0.024078-0.005981-0.038681-0.024723-0.062485-0.031193-0.020798-0.007019-0.041702 0.007023-0.062515 0v-0.031189c-2.4839-0.72485-3.7505-3.2201-3.5-5.3438 0.25322-2.1464 2.0329-4.33 4.6563-4.4688v-6.1e-5z" opacity=".346"/>
   </g>
   <path transform="rotate(35 46.299 65.568)" d="m80.129 46.879c-2.269 1.5738-5.3843 1.0102-6.9581-1.2588s-1.0102-5.3843 1.2588-6.9581 5.3843-1.0102 6.9581 1.2588 1.0102 5.3843-1.2588 6.9581zm-21.206-21.801l20.874 3.7764 11.399 16.434-3.7764 20.874-57.518 39.895-28.496-41.085 57.518-39.895z" fill-rule="evenodd"/>
   <path transform="rotate(35 98.852 63.455)" d="m107.95 54.074c-1.106 0.1725-2.442 0.7062-4 1.5-3.116 1.5877-7.045 4.1604-10.844 6.7187l0.563 0.8438c3.792-2.554 7.691-5.1136 10.718-6.6563 1.514-0.7713 2.823-1.2976 3.719-1.4375 0.448-0.07 0.76999-0.046497 0.96899 0.0312 0.199 0.077702 0.298 0.1656 0.375 0.4063 0.083984 0.2645 0.007996 0.8379-0.375 1.5625-0.383 0.7245-1.018 1.5873-1.844 2.5312-1.652 1.8877-4.037 4.0555-6.594 6.0313-2.556 1.9756-5.3 3.7551-7.625 4.9061-1.1618 0.5756-2.2251 0.9851-3.0933 1.1876-0.6077 0.1417-0.9422 0.057396-1.3125 0 0.5603-1.2297 1.2833-2.4749 1.7188-3.625l-0.9376-0.3437c-0.44389 1.1725-1.4217 2.669-2.0312 4.25l-0.1563 0.4062 0.4063 0.2188c0.70322 0.3516 1.5469 0.3233 2.5313 0.093605 0.98428-0.22961 2.1054-0.6835 3.3125-1.2812 2.414-1.1954 5.184-3.0239 7.781-5.0313 2.598-2.0073 5.034-4.1949 6.75-6.1562 0.85799-0.9806 1.527-1.8842 1.969-2.7188 0.44199-0.8345 0.694-1.6047 0.46899-2.3125-0.15399-0.4819-0.524-0.8884-0.96899-1.0625-0.44601-0.1738-0.94701-0.1487-1.5-0.0625v2.02e-4z"/>
  </g>
 </g>
</svg>
